<?xml version="1.0" standalone="no"?>
<!DOCTYPE svg PUBLIC "-//W3C//DTD SVG 20010904//EN"
 "http://www.w3.org/TR/2001/REC-SVG-20010904/DTD/svg10.dtd">
<svg version="1.0" xmlns="http://www.w3.org/2000/svg"
 width="500.000000pt" height="500.000000pt" viewBox="0 0 500.000000 500.000000"
 preserveAspectRatio="xMidYMid meet">

<g transform="translate(0.000000,500.000000) scale(0.100000,-0.100000)"
fill="#000000" stroke="none">
<path d="M2220 3289 c-91 -16 -275 -47 -410 -69 -135 -21 -283 -46 -330 -54
l-85 -15 113 5 c138 6 242 19 342 44 134 34 402 80 536 92 200 18 422 -8 639
-76 11 -4 0 3 -25 14 -25 12 -86 32 -135 45 -212 55 -393 59 -645 14z"/>
<path d="M2408 3253 c12 -2 32 -2 45 0 12 2 2 4 -23 4 -25 0 -35 -2 -22 -4z"/>
<path d="M2177 3233 c-54 -8 -140 -25 -190 -37 l-92 -22 190 -7 c220 -8 413
-27 575 -57 63 -12 149 -28 190 -35 112 -21 326 -19 461 5 62 11 123 17 136
15 72 -15 78 -15 61 -5 -44 27 -112 29 -233 8 -150 -25 -357 -21 -507 11 -158
33 -366 61 -533 70 -86 5 -158 11 -161 14 -4 4 145 33 256 50 14 3 7 4 -15 5
-22 0 -84 -7 -138 -15z"/>
<path d="M3060 3200 c8 -5 20 -10 25 -10 6 0 3 5 -5 10 -8 5 -19 10 -25 10 -5
0 -3 -5 5 -10z"/>
<path d="M1415 3114 c21 -4 553 -34 593 -34 12 0 22 -5 22 -10 0 -27 -61 -33
-335 -33 -154 0 -246 -2 -205 -3 41 -2 154 -8 250 -14 211 -12 285 -2 309 42
9 15 13 29 10 32 -9 10 -349 26 -509 24 -85 0 -146 -2 -135 -4z"/>
<path d="M2366 3068 c-9 -5 -21 -6 -26 -3 -15 9 -89 -35 -96 -58 -9 -30 1 -30
32 -1 53 49 110 57 182 24 23 -10 42 -16 42 -12 1 4 8 -6 17 -23 9 -16 18 -25
20 -18 5 14 -33 60 -62 76 -31 16 -91 25 -109 15z"/>
<path d="M3465 3046 c-95 -42 -129 -169 -75 -277 11 -21 20 -40 20 -41 0 -2
-143 -4 -318 -5 -174 0 -356 -5 -404 -10 -49 -5 -88 -6 -88 -2 0 4 30 26 67
49 l67 43 230 -5 c259 -4 228 6 -50 18 l-181 7 -49 -27 c-28 -15 -70 -45 -94
-67 l-45 -40 110 6 c61 3 207 10 325 16 118 6 276 7 350 4 l135 -7 -28 30
c-95 101 -49 292 72 294 80 1 121 -54 121 -159 0 -36 -8 -75 -20 -101 -24 -52
-7 -46 20 8 27 54 28 162 0 207 -36 60 -107 86 -165 59z"/>
<path d="M2196 2935 c-20 -48 -21 -142 -1 -189 9 -20 13 -41 10 -46 -4 -6 1
-10 9 -10 20 0 20 8 1 53 -18 44 -19 119 -1 169 18 51 2 72 -18 23z"/>
<path d="M1350 2920 c0 -32 41 -83 107 -133 l57 -42 -60 -6 -59 -6 68 -1 c87
-2 87 10 2 77 -35 28 -72 65 -81 83 l-16 31 182 -7 c113 -4 195 -12 214 -20
17 -7 83 -47 146 -88 63 -41 130 -83 147 -92 42 -21 129 -34 119 -18 -4 7 -17
12 -29 12 -35 1 -101 35 -232 120 -67 45 -138 85 -156 91 -19 6 -118 13 -221
16 l-188 6 0 -23z"/>
<path d="M2554 2914 c3 -9 6 -30 6 -47 0 -23 3 -28 11 -20 14 14 3 83 -13 83
-5 0 -7 -7 -4 -16z"/>
<path d="M1765 2403 c-52 -11 -78 -28 -91 -59 -25 -59 10 -104 109 -144 51
-20 57 -25 57 -51 0 -22 -6 -30 -25 -35 -38 -10 -75 4 -85 31 -7 19 -17 25
-39 25 -16 0 -32 -3 -35 -8 -10 -16 24 -71 53 -86 60 -31 178 -13 195 29 12
31 6 83 -11 104 -10 12 -45 32 -78 46 -71 28 -94 54 -70 79 25 25 72 20 91 -9
21 -33 74 -36 74 -4 0 26 -52 79 -78 79 -11 0 -26 2 -34 4 -7 2 -22 2 -33 -1z"/>
<path d="M730 2230 l0 -170 35 0 35 0 0 70 0 70 71 0 70 0 -3 28 c-3 26 -5 27
-70 30 l-68 3 0 39 0 40 75 0 75 0 0 30 0 30 -110 0 -110 0 0 -170z"/>
<path d="M1259 2373 c-6 -16 -30 -80 -54 -143 -24 -63 -48 -127 -54 -142 -10
-28 -10 -28 28 -28 34 0 39 3 47 33 9 31 11 32 72 35 l63 3 14 -36 c13 -31 20
-35 51 -35 20 0 34 4 32 8 -1 5 -30 82 -63 170 l-60 162 -33 0 c-26 0 -35 -5
-43 -27z m60 -114 c7 -23 15 -47 18 -55 4 -11 -5 -14 -37 -14 -32 0 -41 3 -37
14 3 8 11 32 18 55 7 23 15 41 19 41 4 0 12 -18 19 -41z"/>
<path d="M2120 2370 c0 -29 1 -30 50 -30 l50 0 0 -140 0 -140 35 0 35 0 0 140
0 140 50 0 c49 0 50 1 50 30 l0 30 -135 0 -135 0 0 -30z"/>
<path d="M2610 2230 l0 -170 110 0 110 0 0 30 0 30 -75 0 -75 0 0 140 0 140
-35 0 -35 0 0 -170z"/>
<path d="M3085 2239 c-33 -89 -61 -166 -63 -171 -2 -4 14 -8 36 -8 36 0 40 3
48 33 10 32 10 32 74 32 64 0 64 0 74 -32 8 -30 13 -33 47 -33 l38 0 -25 68
c-14 37 -43 112 -63 167 -37 98 -38 100 -72 103 l-34 3 -60 -162z m114 20 c7
-23 15 -47 18 -55 4 -11 -5 -14 -37 -14 -32 0 -41 3 -37 14 3 8 11 32 18 55 7
23 15 41 19 41 4 0 12 -18 19 -41z"/>
<path d="M3550 2230 l0 -170 35 0 34 0 3 105 3 105 64 -105 c60 -100 65 -105
97 -105 l34 0 0 170 0 170 -35 0 -34 0 -3 -106 -3 -106 -64 106 c-61 101 -65
106 -97 106 l-34 0 0 -170z"/>
<path d="M4060 2230 l0 -170 115 0 115 0 0 30 0 30 -80 0 -80 0 0 45 0 45 70
0 c68 0 70 1 70 25 0 24 -2 25 -70 25 l-70 0 0 40 0 39 78 3 c76 3 77 3 80 31
l3 27 -115 0 -116 0 0 -170z"/>
<path d="M1766 1838 c-32 -46 -7 -108 43 -108 28 0 60 25 47 37 -3 3 -17 0
-31 -7 -33 -18 -48 -4 -43 41 2 26 8 35 26 37 12 2 22 -1 22 -7 0 -6 7 -11 15
-11 18 0 19 12 3 28 -20 20 -65 14 -82 -10z"/>
<path d="M1925 1808 c-10 -29 -20 -59 -23 -65 -2 -7 3 -13 12 -13 9 0 16 7 16
15 0 9 9 15 25 15 14 0 28 -7 31 -15 4 -8 12 -15 20 -15 11 0 8 14 -10 63 -30
81 -49 85 -71 15z m45 -14 c0 -8 -6 -14 -14 -14 -9 0 -12 7 -9 20 6 22 23 18
23 -6z"/>
<path d="M2060 1796 c0 -52 3 -66 15 -66 9 0 15 9 15 25 0 14 5 25 10 25 6 0
16 -11 22 -25 6 -14 17 -25 25 -25 16 0 16 5 3 30 -8 14 -7 25 2 40 20 31 -1
54 -51 58 l-41 3 0 -65z m70 24 c0 -13 -7 -20 -20 -20 -13 0 -20 7 -20 20 0
13 7 20 20 20 13 0 20 -7 20 -20z"/>
<path d="M2280 1796 c0 -52 3 -66 15 -66 9 0 15 9 15 25 0 14 4 25 10 25 5 0
17 -11 26 -25 9 -14 23 -25 30 -25 12 0 11 5 -2 25 -13 20 -14 28 -4 39 6 8
10 25 8 38 -3 20 -10 23 -50 26 l-48 3 0 -65z m70 24 c0 -13 -7 -20 -20 -20
-13 0 -20 7 -20 20 0 13 7 20 20 20 13 0 20 -7 20 -20z"/>
<path d="M2430 1795 l0 -65 45 0 c25 0 45 5 45 10 0 6 -13 10 -30 10 -23 0
-30 4 -30 20 0 15 7 20 25 20 14 0 25 5 25 10 0 6 -11 10 -25 10 -16 0 -25 6
-25 15 0 10 10 15 30 15 17 0 30 5 30 10 0 6 -20 10 -45 10 l-45 0 0 -65z"/>
<path d="M2560 1795 c0 -50 3 -65 14 -65 10 0 16 14 18 43 l3 42 24 -42 c36
-63 51 -56 51 22 0 37 -4 65 -10 65 -5 0 -10 -16 -10 -35 0 -19 -4 -35 -8 -35
-5 0 -17 16 -28 35 -10 20 -26 35 -36 35 -15 0 -18 -9 -18 -65z"/>
<path d="M2720 1850 c0 -5 9 -10 20 -10 18 0 20 -7 20 -55 0 -30 5 -55 10 -55
6 0 10 25 10 55 0 48 2 55 20 55 11 0 20 5 20 10 0 6 -22 10 -50 10 -27 0 -50
-4 -50 -10z"/>
<path d="M2886 1808 c-10 -29 -21 -59 -23 -65 -3 -7 2 -13 10 -13 8 0 17 7 21
15 3 8 15 15 26 15 11 0 23 -7 26 -15 4 -8 13 -15 21 -15 8 0 13 6 10 13 -2 6
-13 36 -23 65 -12 32 -25 52 -34 52 -9 0 -22 -20 -34 -52z m48 -13 c3 -9 0
-15 -9 -15 -8 0 -15 7 -15 15 0 8 4 15 9 15 5 0 11 -7 15 -15z"/>
<path d="M3020 1795 l0 -65 45 0 c25 0 45 5 45 10 0 6 -13 10 -30 10 -30 0
-30 1 -30 55 0 42 -3 55 -15 55 -12 0 -15 -14 -15 -65z"/>
<path d="M3160 1845 c-17 -21 -5 -44 30 -56 16 -6 30 -17 30 -25 0 -17 -32
-18 -48 -2 -17 17 -28 2 -12 -17 15 -18 61 -20 78 -3 20 20 14 38 -23 59 -19
12 -35 25 -35 30 0 13 38 11 42 -3 2 -6 10 -8 17 -4 9 6 9 11 0 22 -15 18 -63
18 -79 -1z"/>
</g>
</svg>
