<?xml version="1.0" encoding="UTF-8"?>
<!DOCTYPE svg PUBLIC "-//W3C//DTD SVG 1.1//EN" "http://www.w3.org/Graphics/SVG/1.1/DTD/svg11.dtd">
<svg xmlns="http://www.w3.org/2000/svg" version="1.1" width="500px" height="243px" style="shape-rendering:geometricPrecision; text-rendering:geometricPrecision; image-rendering:optimizeQuality; fill-rule:evenodd; clip-rule:evenodd" xmlns:xlink="http://www.w3.org/1999/xlink">
<g><path style="opacity:1" fill="#fdfdfe" d="M -0.5,-0.5 C 166.167,-0.5 332.833,-0.5 499.5,-0.5C 499.5,80.5 499.5,161.5 499.5,242.5C 332.833,242.5 166.167,242.5 -0.5,242.5C -0.5,161.5 -0.5,80.5 -0.5,-0.5 Z"/></g>
<g><path style="opacity:1" fill="#5e5e5e" d="M 267.5,20.5 C 269.099,20.2322 270.432,20.5655 271.5,21.5C 270.494,21.9377 270.494,22.6043 271.5,23.5C 267.958,23.8128 264.625,23.4794 261.5,22.5C 263.857,22.6633 266.19,22.4966 268.5,22C 267.944,21.6174 267.611,21.1174 267.5,20.5 Z"/></g>
<g><path style="opacity:1" fill="#2e2e2e" d="M 271.5,21.5 C 288.641,23.0466 304.974,27.5466 320.5,35C 312.588,32.7315 304.588,30.3982 296.5,28C 288.258,25.9179 279.924,24.4179 271.5,23.5C 270.494,22.6043 270.494,21.9377 271.5,21.5 Z"/></g>
<g><path style="opacity:1" fill="#262626" d="M 267.5,20.5 C 267.611,21.1174 267.944,21.6174 268.5,22C 266.19,22.4966 263.857,22.6633 261.5,22.5C 227.143,22.7177 193.476,27.551 160.5,37C 144.898,39.2607 129.232,40.2607 113.5,40C 151.553,34.1589 189.553,27.8255 227.5,21C 240.824,19.3117 254.157,19.145 267.5,20.5 Z"/></g>
<g><path style="opacity:1" fill="#565656" d="M 209.5,32.5 C 207.735,31.5386 205.735,31.2053 203.5,31.5C 216.545,28.5638 229.878,27.3971 243.5,28C 232.015,28.738 220.682,30.238 209.5,32.5 Z"/></g>
<g><path style="opacity:1" fill="#282828" d="M 203.5,31.5 C 205.735,31.2053 207.735,31.5386 209.5,32.5C 204.05,33.0901 198.717,34.2568 193.5,36C 206.842,36.4931 220.175,37.1598 233.5,38C 256.637,40.9331 279.637,44.5998 302.5,49C 318.764,50.5156 334.764,49.1823 350.5,45C 360.022,43.8376 369.022,45.5043 377.5,50C 378.696,50.6543 378.696,51.1543 377.5,51.5C 372.171,48.7512 366.505,47.4179 360.5,47.5C 342.008,51.0915 323.341,52.5915 304.5,52C 261.679,42.8361 218.346,38.1694 174.5,38C 183.994,35.1143 193.661,32.9477 203.5,31.5 Z"/></g>
<g><path style="opacity:1" fill="#343434" d="M 158.5,45.5 C 155.482,45.3354 152.482,45.502 149.5,46C 152.036,46.1862 154.369,46.6862 156.5,47.5C 142.145,47.101 127.812,46.2677 113.5,45C 128.672,44.1723 143.672,44.3389 158.5,45.5 Z"/></g>
<g><path style="opacity:1" fill="#7a7a7a" d="M 190.5,46.5 C 192.167,46.5 193.833,46.5 195.5,46.5C 195.784,48.4147 195.451,50.0813 194.5,51.5C 194.5,50.1667 194.5,48.8333 194.5,47.5C 192.901,47.7678 191.568,47.4345 190.5,46.5 Z"/></g>
<g><path style="opacity:1" fill="#939393" d="M 228.5,50.5 C 232.167,49.1667 235.833,49.1667 239.5,50.5C 235.713,50.9154 232.046,50.9154 228.5,50.5 Z"/></g>
<g><path style="opacity:1" fill="#212121" d="M 228.5,50.5 C 232.046,50.9154 235.713,50.9154 239.5,50.5C 242.912,51.0421 245.912,52.3754 248.5,54.5C 248.5,55.8333 247.833,56.5 246.5,56.5C 236.321,50.3824 227.321,51.7157 219.5,60.5C 218.596,59.791 218.263,58.791 218.5,57.5C 220.711,53.7148 224.044,51.3815 228.5,50.5 Z"/></g>
<g><path style="opacity:1" fill="#282828" d="M 158.5,45.5 C 169.181,45.4704 179.848,45.8037 190.5,46.5C 191.568,47.4345 192.901,47.7678 194.5,47.5C 194.5,48.8333 194.5,50.1667 194.5,51.5C 193.71,52.7942 192.71,53.9609 191.5,55C 188.167,55.6667 184.833,56.3333 181.5,57C 165.471,57.4979 149.471,56.9979 133.5,55.5C 133.5,54.8333 133.5,54.1667 133.5,53.5C 150.496,54.2707 167.496,54.4374 184.5,54C 187.511,53.2569 190.178,51.9235 192.5,50C 180.516,48.8947 168.516,48.0614 156.5,47.5C 154.369,46.6862 152.036,46.1862 149.5,46C 152.482,45.502 155.482,45.3354 158.5,45.5 Z"/></g>
<g><path style="opacity:1" fill="#7a7a7a" d="M 133.5,53.5 C 133.5,54.1667 133.5,54.8333 133.5,55.5C 101.534,55.4968 101.534,54.8302 133.5,53.5 Z"/></g>
<g><path style="opacity:1" fill="#848484" d="M 218.5,57.5 C 218.263,58.791 218.596,59.791 219.5,60.5C 218.136,62.1911 216.803,63.8577 215.5,65.5C 214.833,64.8333 214.167,64.1667 213.5,63.5C 214.497,60.845 216.164,58.845 218.5,57.5 Z"/></g>
<g><path style="opacity:1" fill="#717171" d="M 248.5,54.5 C 257.263,61.9609 260.097,71.2943 257,82.5C 256.986,76.3048 255.986,70.3048 254,64.5C 251.972,61.3078 249.472,58.6411 246.5,56.5C 247.833,56.5 248.5,55.8333 248.5,54.5 Z"/></g>
<g><path style="opacity:1" fill="#1f1f1f" d="M 126.5,66.5 C 121.944,68.4417 116.944,69.1083 111.5,68.5C 111.263,69.791 111.596,70.791 112.5,71.5C 112.987,72.4734 113.487,73.4734 114,74.5C 119.668,79.4 125.168,84.4 130.5,89.5C 130.631,90.3764 130.298,91.0431 129.5,91.5C 128.818,90.7573 128.151,90.0906 127.5,89.5C 120.181,84.7434 114.014,78.7434 109,71.5C 108.506,69.8659 108.34,68.1992 108.5,66.5C 114.5,66.5 120.5,66.5 126.5,66.5 Z"/></g>
<g><path style="opacity:1" fill="#424242" d="M 126.5,66.5 C 135.349,66.1736 144.016,66.507 152.5,67.5C 150.801,67.3398 149.134,67.5065 147.5,68C 148.056,68.3826 148.389,68.8826 148.5,69.5C 136.12,68.8542 124.12,69.5209 112.5,71.5C 111.596,70.791 111.263,69.791 111.5,68.5C 116.944,69.1083 121.944,68.4417 126.5,66.5 Z"/></g>
<g><path style="opacity:1" fill="#212121" d="M 213.5,63.5 C 214.167,64.1667 214.833,64.8333 215.5,65.5C 211.27,75.6271 211.603,85.6271 216.5,95.5C 210.126,96.8194 203.792,96.6527 197.5,95C 185.992,88.7491 174.992,81.7491 164.5,74C 159.414,71.582 154.081,70.082 148.5,69.5C 148.389,68.8826 148.056,68.3826 147.5,68C 149.134,67.5065 150.801,67.3398 152.5,67.5C 157.394,68.3882 162.061,69.8882 166.5,72C 175.833,78.3333 185.167,84.6667 194.5,91C 200.58,93.6391 206.913,95.1391 213.5,95.5C 211.243,89.8925 209.91,84.0592 209.5,78C 209.329,72.6882 210.663,67.8549 213.5,63.5 Z"/></g>
<g><path style="opacity:1" fill="#2b2b2b" d="M 321.5,82.5 C 320.791,83.404 319.791,83.7373 318.5,83.5C 304.496,83.3334 290.496,83.5001 276.5,84C 270.984,86.5891 265.984,89.9225 261.5,94C 283.468,92.9562 305.468,92.1228 327.5,91.5C 338.51,91.8837 349.51,92.0504 360.5,92C 352.76,80.5578 352.593,69.0578 360,57.5C 366.884,51.8549 374.384,51.0216 382.5,55C 390.842,63.5025 392.675,73.3358 388,84.5C 380.569,96.6355 379.903,96.3021 386,83.5C 388.38,75.5462 387.713,67.8795 384,60.5C 372.828,51.0701 364.162,53.0701 358,66.5C 355.077,77.5555 357.91,86.7222 366.5,94C 337.817,92.874 309.15,93.5407 280.5,96C 271.833,96.6667 263.167,96.6667 254.5,96C 260.614,90.5547 267.28,85.888 274.5,82C 290.179,81.325 305.846,81.4916 321.5,82.5 Z"/></g>
<g><path style="opacity:1" fill="#636363" d="M 321.5,82.5 C 325.804,83.1306 330.137,83.6306 334.5,84C 328.984,84.8174 323.65,84.6507 318.5,83.5C 319.791,83.7373 320.791,83.404 321.5,82.5 Z"/></g>
<g><path style="opacity:1" fill="#9b9b9b" d="M 127.5,89.5 C 128.151,90.0906 128.818,90.7573 129.5,91.5C 130.298,91.0431 130.631,90.3764 130.5,89.5C 131.404,90.209 131.737,91.209 131.5,92.5C 125.816,92.2575 120.149,91.7575 114.5,91C 119.019,90.8247 123.353,90.3247 127.5,89.5 Z"/></g>
<g><path style="opacity:1" fill="#565656" d="M 59.5,139.5 C 59.5,137.5 59.5,135.5 59.5,133.5C 50.8333,133.5 42.1667,133.5 33.5,133.5C 33.5,147.167 33.5,160.833 33.5,174.5C 32.5042,160.677 32.1709,146.677 32.5,132.5C 41.8333,132.5 51.1667,132.5 60.5,132.5C 60.8016,135.059 60.4682,137.393 59.5,139.5 Z"/></g>
<g><path style="opacity:1" fill="#090909" d="M 177.5,142.5 C 175.365,144.369 172.698,145.036 169.5,144.5C 168.824,140.652 166.491,138.985 162.5,139.5C 156.326,139.459 154.66,141.959 157.5,147C 162.003,149.39 166.669,151.39 171.5,153C 177.177,156.636 179.01,161.803 177,168.5C 175.833,170.333 174.333,171.833 172.5,173C 166.92,174.517 161.253,174.851 155.5,174C 149.538,171.884 146.538,167.717 146.5,161.5C 149.167,161.5 151.833,161.5 154.5,161.5C 156.443,168.497 160.776,170.33 167.5,167C 170.265,164.034 169.932,161.367 166.5,159C 159.861,157.265 154.028,154.098 149,149.5C 145.487,141.724 147.654,136.224 155.5,133C 164.078,130.797 171.245,132.963 177,139.5C 177.483,140.448 177.649,141.448 177.5,142.5 Z"/></g>
<g><path style="opacity:1" fill="#3a3a3a" d="M 236.5,133.5 C 225.5,133.5 214.5,133.5 203.5,133.5C 203.5,135.5 203.5,137.5 203.5,139.5C 203.167,139.5 202.833,139.5 202.5,139.5C 202.5,137.167 202.5,134.833 202.5,132.5C 214.012,132.172 225.346,132.505 236.5,133.5 Z"/></g>
<g><path style="opacity:1" fill="#020202" d="M 59.5,139.5 C 53.5,139.5 47.5,139.5 41.5,139.5C 41.5,143.167 41.5,146.833 41.5,150.5C 47.1667,150.5 52.8333,150.5 58.5,150.5C 58.5,152.833 58.5,155.167 58.5,157.5C 52.8333,157.5 47.1667,157.5 41.5,157.5C 41.5,163.167 41.5,168.833 41.5,174.5C 38.8333,174.5 36.1667,174.5 33.5,174.5C 33.5,160.833 33.5,147.167 33.5,133.5C 42.1667,133.5 50.8333,133.5 59.5,133.5C 59.5,135.5 59.5,137.5 59.5,139.5 Z"/></g>
<g><path style="opacity:1" fill="#0c0c0c" d="M 98.5,132.5 C 101.448,132.223 104.281,132.556 107,133.5C 112.14,147.088 116.973,160.755 121.5,174.5C 118.5,174.5 115.5,174.5 112.5,174.5C 111.833,171.5 111.167,168.5 110.5,165.5C 105.167,165.5 99.8333,165.5 94.5,165.5C 93.8333,168.5 93.1667,171.5 92.5,174.5C 89.5,174.5 86.5,174.5 83.5,174.5C 88.1038,160.355 93.1038,146.355 98.5,132.5 Z"/></g>
<g><path style="opacity:1" fill="#000000" d="M 236.5,133.5 C 236.5,135.5 236.5,137.5 236.5,139.5C 232.167,139.5 227.833,139.5 223.5,139.5C 223.5,151.167 223.5,162.833 223.5,174.5C 220.833,174.5 218.167,174.5 215.5,174.5C 215.5,162.833 215.5,151.167 215.5,139.5C 211.5,139.5 207.5,139.5 203.5,139.5C 203.5,137.5 203.5,135.5 203.5,133.5C 214.5,133.5 225.5,133.5 236.5,133.5 Z"/></g>
<g><path style="opacity:1" fill="#040404" d="M 263.5,132.5 C 266.167,132.5 268.833,132.5 271.5,132.5C 271.5,144.167 271.5,155.833 271.5,167.5C 277.833,167.5 284.167,167.5 290.5,167.5C 290.5,169.833 290.5,172.167 290.5,174.5C 281.5,174.5 272.5,174.5 263.5,174.5C 263.5,160.5 263.5,146.5 263.5,132.5 Z"/></g>
<g><path style="opacity:1" fill="#0c0c0c" d="M 328.5,132.5 C 331.448,132.223 334.281,132.556 337,133.5C 342.14,147.088 346.973,160.755 351.5,174.5C 348.5,174.5 345.5,174.5 342.5,174.5C 341.833,171.5 341.167,168.5 340.5,165.5C 335.167,165.5 329.833,165.5 324.5,165.5C 323.833,168.5 323.167,171.5 322.5,174.5C 319.5,174.5 316.5,174.5 313.5,174.5C 318.104,160.355 323.104,146.355 328.5,132.5 Z"/></g>
<g><path style="opacity:1" fill="#040404" d="M 401.5,158.5 C 401.56,159.043 401.893,159.376 402.5,159.5C 403.498,150.859 403.831,142.192 403.5,133.5C 406.167,133.5 408.833,133.5 411.5,133.5C 411.5,147.167 411.5,160.833 411.5,174.5C 408.223,174.784 405.057,174.451 402,173.5C 397.143,165.112 392.31,156.778 387.5,148.5C 387.44,147.957 387.107,147.624 386.5,147.5C 385.502,156.475 385.168,165.475 385.5,174.5C 382.833,174.5 380.167,174.5 377.5,174.5C 377.5,160.5 377.5,146.5 377.5,132.5C 380.572,132.183 383.572,132.516 386.5,133.5C 391.763,141.695 396.763,150.029 401.5,158.5 Z"/></g>
<g><path style="opacity:1" fill="#5d5d5d" d="M 411.5,133.5 C 408.833,133.5 406.167,133.5 403.5,133.5C 403.831,142.192 403.498,150.859 402.5,159.5C 401.893,159.376 401.56,159.043 401.5,158.5C 402.493,150.016 402.826,141.349 402.5,132.5C 405.713,132.19 408.713,132.523 411.5,133.5 Z"/></g>
<g><path style="opacity:1" fill="#0b0b0b" d="M 440.5,132.5 C 449.833,132.5 459.167,132.5 468.5,132.5C 468.5,134.833 468.5,137.167 468.5,139.5C 462.167,139.5 455.833,139.5 449.5,139.5C 449.5,142.833 449.5,146.167 449.5,149.5C 454.833,149.5 460.167,149.5 465.5,149.5C 465.5,151.833 465.5,154.167 465.5,156.5C 460.167,156.5 454.833,156.5 449.5,156.5C 449.5,160.167 449.5,163.833 449.5,167.5C 455.833,167.5 462.167,167.5 468.5,167.5C 468.5,169.833 468.5,172.167 468.5,174.5C 459.167,174.5 449.833,174.5 440.5,174.5C 440.5,160.5 440.5,146.5 440.5,132.5 Z"/></g>
<g><path style="opacity:1" fill="#c4c4c4" d="M 202.5,139.5 C 202.833,139.5 203.167,139.5 203.5,139.5C 207.5,139.5 211.5,139.5 215.5,139.5C 215.5,151.167 215.5,162.833 215.5,174.5C 214.505,163.346 214.172,152.012 214.5,140.5C 210.298,140.817 206.298,140.483 202.5,139.5 Z"/></g>
<g><path style="opacity:1" fill="#7b7b7b" d="M 177.5,142.5 C 178.404,143.209 178.737,144.209 178.5,145.5C 175.287,145.81 172.287,145.477 169.5,144.5C 172.698,145.036 175.365,144.369 177.5,142.5 Z"/></g>
<g><path style="opacity:1" fill="#f2f2f2" d="M 101.5,144.5 C 102.497,144.47 103.164,144.97 103.5,146C 104.735,149.871 106.068,153.704 107.5,157.5C 104.167,158.833 100.833,158.833 97.5,157.5C 99.2422,153.275 100.576,148.941 101.5,144.5 Z"/></g>
<g><path style="opacity:1" fill="#f2f2f2" d="M 331.5,144.5 C 332.497,144.47 333.164,144.97 333.5,146C 334.735,149.871 336.068,153.704 337.5,157.5C 334.167,158.833 330.833,158.833 327.5,157.5C 329.242,153.275 330.576,148.941 331.5,144.5 Z"/></g>
<g><path style="opacity:1" fill="#696969" d="M 387.5,148.5 C 386.833,157.167 386.167,165.833 385.5,174.5C 385.168,165.475 385.502,156.475 386.5,147.5C 387.107,147.624 387.44,147.957 387.5,148.5 Z"/></g>
<g><path style="opacity:1" fill="#4063ff" d="M 130.5,195.5 C 136.647,195.05 140.314,197.717 141.5,203.5C 138.755,203.627 136.755,202.46 135.5,200C 129.922,198.91 127.589,201.244 128.5,207C 128.565,209.225 128.898,211.392 129.5,213.5C 130.5,213.833 131.5,214.167 132.5,214.5C 135.13,212.721 138.13,211.721 141.5,211.5C 141.201,214.642 139.534,216.809 136.5,218C 125.567,218.71 121.4,213.543 124,202.5C 125.018,198.985 127.185,196.652 130.5,195.5 Z"/></g>
<g><path style="opacity:1" fill="#375eff" d="M 155.5,196.5 C 158.833,196.027 161,197.36 162,200.5C 164.069,206.206 166.235,211.872 168.5,217.5C 164.558,219.121 162.558,217.788 162.5,213.5C 159.5,213.5 156.5,213.5 153.5,213.5C 153.504,217.605 151.504,219.105 147.5,218C 150.464,210.942 153.13,203.776 155.5,196.5 Z"/></g>
<g><path style="opacity:1" fill="#345dff" d="M 175.5,196.5 C 179.846,196.334 184.179,196.501 188.5,197C 192.418,201.281 192.418,205.614 188.5,210C 189.953,212.405 191.287,214.905 192.5,217.5C 190.833,218.833 189.167,218.833 187.5,217.5C 186.5,215.5 185.5,213.5 184.5,211.5C 183.311,210.571 181.978,210.238 180.5,210.5C 180.5,213.167 180.5,215.833 180.5,218.5C 178.833,218.5 177.167,218.5 175.5,218.5C 175.5,211.167 175.5,203.833 175.5,196.5 Z"/></g>
<g><path style="opacity:1" fill="#335dff" d="M 213.5,196.5 C 217.514,196.334 221.514,196.501 225.5,197C 229.213,198.691 230.379,201.525 229,205.5C 228.363,207.303 227.197,208.636 225.5,209.5C 227.293,212.251 228.959,215.084 230.5,218C 228.833,218.667 227.167,218.667 225.5,218C 224.167,215.667 222.833,213.333 221.5,211C 220.207,210.51 218.873,210.343 217.5,210.5C 217.5,213.167 217.5,215.833 217.5,218.5C 216.167,218.5 214.833,218.5 213.5,218.5C 213.5,211.167 213.5,203.833 213.5,196.5 Z"/></g>
<g><path style="opacity:1" fill="#2b59ff" d="M 242.5,214.5 C 245.625,215.479 248.958,215.813 252.5,215.5C 252.5,216.5 252.5,217.5 252.5,218.5C 247.833,218.5 243.167,218.5 238.5,218.5C 238.5,211.167 238.5,203.833 238.5,196.5C 243.167,196.5 247.833,196.5 252.5,196.5C 252.5,197.5 252.5,198.5 252.5,199.5C 249.167,199.5 245.833,199.5 242.5,199.5C 242.5,201.5 242.5,203.5 242.5,205.5C 245.5,205.5 248.5,205.5 251.5,205.5C 251.5,206.5 251.5,207.5 251.5,208.5C 248.5,208.5 245.5,208.5 242.5,208.5C 242.5,210.5 242.5,212.5 242.5,214.5 Z"/></g>
<g><path style="opacity:1" fill="#2f5bff" d="M 272.5,208.5 C 272.783,209.289 273.283,209.956 274,210.5C 274.499,205.845 274.666,201.179 274.5,196.5C 275.833,196.5 277.167,196.5 278.5,196.5C 278.5,203.833 278.5,211.167 278.5,218.5C 276.712,218.785 275.045,218.452 273.5,217.5C 271.139,213.483 268.806,209.483 266.5,205.5C 266.44,204.957 266.107,204.624 265.5,204.5C 264.507,209.12 264.173,213.786 264.5,218.5C 263.167,218.5 261.833,218.5 260.5,218.5C 260.5,211.167 260.5,203.833 260.5,196.5C 262.199,196.34 263.866,196.506 265.5,197C 267.97,200.778 270.303,204.611 272.5,208.5 Z"/></g>
<g><path style="opacity:1" fill="#a1b5ff" d="M 274.5,196.5 C 274.666,201.179 274.499,205.845 274,210.5C 273.283,209.956 272.783,209.289 272.5,208.5C 273.167,204.5 273.833,200.5 274.5,196.5 Z"/></g>
<g><path style="opacity:1" fill="#2d5aff" d="M 293.5,218.5 C 293.5,212.167 293.5,205.833 293.5,199.5C 291.167,199.5 288.833,199.5 286.5,199.5C 286.5,198.5 286.5,197.5 286.5,196.5C 292.5,196.5 298.5,196.5 304.5,196.5C 304.5,197.5 304.5,198.5 304.5,199.5C 302.167,199.5 299.833,199.5 297.5,199.5C 297.5,205.833 297.5,212.167 297.5,218.5C 296.167,218.5 294.833,218.5 293.5,218.5 Z"/></g>
<g><path style="opacity:1" fill="#375eff" d="M 317.5,196.5 C 319.467,196.261 321.301,196.594 323,197.5C 325.402,204.205 327.902,210.872 330.5,217.5C 328.955,218.452 327.288,218.785 325.5,218.5C 325.843,214.866 324.177,213.199 320.5,213.5C 316.918,212.917 314.918,214.417 314.5,218C 313.207,218.49 311.873,218.657 310.5,218.5C 312.833,211.167 315.167,203.833 317.5,196.5 Z"/></g>
<g><path style="opacity:1" fill="#3f64ff" d="M 337.5,196.5 C 339.167,196.5 340.833,196.5 342.5,196.5C 342.5,202.5 342.5,208.5 342.5,214.5C 345.833,214.5 349.167,214.5 352.5,214.5C 352.5,215.833 352.5,217.167 352.5,218.5C 347.5,218.5 342.5,218.5 337.5,218.5C 337.5,211.167 337.5,203.833 337.5,196.5 Z"/></g>
<g><path style="opacity:1" fill="#3f62ff" d="M 364.5,195.5 C 370.412,194.609 374.079,196.942 375.5,202.5C 372.459,202.449 369.792,201.449 367.5,199.5C 364.918,199.747 364.085,201.08 365,203.5C 367.192,205.235 369.692,206.402 372.5,207C 376.747,211.163 376.414,214.829 371.5,218C 365.366,220.035 361.033,218.202 358.5,212.5C 359.333,212.167 360.167,211.833 361,211.5C 363.027,213.02 365.194,214.353 367.5,215.5C 369.5,215.5 370.5,214.5 370.5,212.5C 366.973,209.924 363.473,207.257 360,204.5C 359.053,200.279 360.553,197.279 364.5,195.5 Z"/></g>
<g><path style="opacity:1" fill="#88a0ff" d="M 185.5,200.5 C 183.833,200.5 182.167,200.5 180.5,200.5C 180.5,202.5 180.5,204.5 180.5,206.5C 179.532,204.393 179.198,202.059 179.5,199.5C 181.735,199.205 183.735,199.539 185.5,200.5 Z"/></g>
<g><path style="opacity:1" fill="#f7f8ff" d="M 185.5,200.5 C 187.377,201.659 187.877,203.326 187,205.5C 184.959,206.423 182.792,206.756 180.5,206.5C 180.5,204.5 180.5,202.5 180.5,200.5C 182.167,200.5 183.833,200.5 185.5,200.5 Z"/></g>
<g><path style="opacity:1" fill="#f2f4ff" d="M 217.5,199.5 C 223.662,198.156 225.662,200.322 223.5,206C 221.527,206.495 219.527,206.662 217.5,206.5C 217.5,204.167 217.5,201.833 217.5,199.5 Z"/></g>
<g><path style="opacity:1" fill="#819bff" d="M 286.5,199.5 C 288.833,199.5 291.167,199.5 293.5,199.5C 293.5,205.833 293.5,212.167 293.5,218.5C 292.51,212.69 292.177,206.69 292.5,200.5C 290.265,200.795 288.265,200.461 286.5,199.5 Z"/></g>
<g><path style="opacity:1" fill="#e5e9ff" d="M 157.5,202.5 C 159.267,204.792 160.267,207.458 160.5,210.5C 158.833,210.5 157.167,210.5 155.5,210.5C 155.963,207.779 156.629,205.112 157.5,202.5 Z"/></g>
<g><path style="opacity:1" fill="#7d99ff" d="M 266.5,205.5 C 265.833,209.833 265.167,214.167 264.5,218.5C 264.173,213.786 264.507,209.12 265.5,204.5C 266.107,204.624 266.44,204.957 266.5,205.5 Z"/></g>
<g><path style="opacity:1" fill="#e3e8ff" d="M 319.5,202.5 C 321.655,204.617 322.655,207.284 322.5,210.5C 320.712,210.785 319.045,210.452 317.5,209.5C 318.577,207.271 319.244,204.937 319.5,202.5 Z"/></g>
<g><path style="opacity:1" fill="#7490ff" d="M 242.5,214.5 C 246.167,214.5 249.833,214.5 253.5,214.5C 253.768,216.099 253.434,217.432 252.5,218.5C 252.5,217.5 252.5,216.5 252.5,215.5C 248.958,215.813 245.625,215.479 242.5,214.5 Z"/></g>
</svg>
