<?xml version="1.0" standalone="no"?>
<!DOCTYPE svg PUBLIC "-//W3C//DTD SVG 20010904//EN"
 "http://www.w3.org/TR/2001/REC-SVG-20010904/DTD/svg10.dtd">
<svg version="1.0" xmlns="http://www.w3.org/2000/svg"
 width="500.000000pt" height="214.000000pt" viewBox="0 0 500.000000 214.000000"
 preserveAspectRatio="xMidYMid meet">

<g transform="translate(0.000000,214.000000) scale(0.100000,-0.100000)"
fill="#000000" stroke="none">
<path d="M2350 2040 c-41 -5 -163 -25 -270 -44 -233 -42 -570 -97 -770 -126
-80 -12 -149 -23 -155 -26 -20 -9 264 7 360 20 55 8 150 26 210 41 61 14 169
37 240 50 293 54 342 59 565 59 193 0 228 -3 341 -27 69 -14 165 -40 215 -56
49 -16 98 -32 109 -36 11 -3 8 1 -8 10 -52 30 -270 97 -381 116 -129 23 -348
32 -456 19z"/>
<path d="M2353 1963 c15 -2 37 -2 50 0 12 2 0 4 -28 4 -27 0 -38 -2 -22 -4z"/>
<path d="M2130 1945 c-93 -13 -295 -55 -355 -74 -22 -7 18 -10 140 -10 284 -2
597 -34 890 -92 83 -16 186 -33 230 -38 106 -12 298 -5 410 15 139 25 223 28
275 10 54 -19 63 -14 16 8 -68 32 -143 39 -236 22 -278 -51 -411 -49 -735 14
-254 49 -532 80 -724 80 -56 1 -81 4 -70 10 15 9 175 42 284 58 57 9 57 10 15
10 -25 0 -88 -6 -140 -13z"/>
<path d="M1265 1790 c55 -4 152 -11 215 -14 314 -18 444 -27 448 -30 2 -3 -9
-13 -24 -23 -26 -17 -55 -18 -360 -18 -183 0 -336 -3 -340 -7 -4 -5 42 -8 102
-8 60 0 195 -5 299 -11 170 -11 197 -10 255 5 73 19 88 30 92 66 3 24 0 25
-62 32 -36 3 -213 8 -395 11 -210 4 -294 3 -230 -3z"/>
<path d="M2327 1740 c-9 -6 -21 -9 -26 -5 -26 16 -121 -52 -121 -87 0 -24 1
-23 46 17 65 59 140 68 225 25 34 -18 49 -17 49 1 0 14 -75 48 -117 54 -21 3
-46 1 -56 -5z"/>
<path d="M3665 1710 c-34 -14 -81 -72 -100 -123 -25 -65 -17 -161 19 -220 l25
-45 -307 0 c-272 0 -601 -14 -672 -28 -23 -5 -23 -3 10 26 19 17 59 45 89 62
l53 31 282 -4 c256 -4 272 -4 176 7 -58 7 -189 13 -292 13 l-187 1 -58 -34
c-32 -19 -80 -54 -108 -77 l-50 -42 155 6 c85 4 243 12 350 18 107 6 291 9
408 7 l213 -5 -30 31 c-42 44 -61 95 -61 168 0 110 55 186 143 195 51 6 100
-23 131 -76 29 -50 28 -178 -2 -245 -12 -27 -21 -50 -19 -52 2 -2 15 15 30 38
72 111 49 280 -45 338 -35 21 -115 26 -153 10z"/>
<path d="M2510 1668 c0 -23 26 -53 34 -39 4 6 0 14 -8 17 -9 3 -14 10 -11 14
3 5 1 11 -5 15 -5 3 -10 0 -10 -7z"/>
<path d="M2120 1563 c-27 -71 -23 -155 9 -227 l21 -49 -47 7 c-89 12 -143 38
-307 145 -94 62 -183 113 -212 122 -36 10 -108 14 -269 14 l-220 0 2 -27 c2
-37 53 -98 124 -150 33 -23 59 -46 59 -50 0 -4 -21 -9 -47 -11 -43 -3 -42 -4
15 -5 83 -3 81 12 -8 83 -72 58 -128 121 -116 132 4 4 98 6 209 4 159 -2 213
-6 252 -20 28 -9 117 -61 199 -115 192 -127 212 -136 309 -136 42 0 77 1 77 3
0 1 -9 26 -20 55 -24 61 -26 149 -5 207 8 22 15 48 15 58 0 35 -19 16 -40 -40z"/>
<path d="M2564 1548 c3 -13 6 -40 6 -61 0 -23 4 -36 10 -32 19 12 8 115 -12
115 -6 0 -8 -10 -4 -22z"/>
<path d="M337 913 c-4 -3 -7 -98 -7 -210 l0 -203 45 0 45 0 0 85 0 85 85 0 85
0 0 35 0 35 -85 0 -85 0 0 55 0 55 95 0 95 0 0 35 0 35 -133 0 c-74 0 -137 -3
-140 -7z"/>
<path d="M966 853 c-63 -167 -126 -339 -126 -345 0 -5 19 -8 43 -8 41 0 43 1
57 43 l15 42 75 0 75 0 15 -42 c14 -42 16 -43 57 -43 24 0 43 4 43 9 0 4 -25
75 -56 157 -31 82 -65 173 -76 202 -19 50 -21 52 -58 52 -38 0 -38 0 -64 -67z
m88 -110 c10 -32 21 -64 23 -70 4 -10 -9 -13 -47 -13 -38 0 -51 3 -47 13 2 6
13 38 23 70 10 31 21 57 24 57 3 0 14 -26 24 -57z"/>
<path d="M1542 903 c-38 -19 -62 -58 -62 -104 0 -43 50 -90 125 -118 96 -36
121 -74 70 -107 -37 -24 -92 -11 -113 27 -14 24 -24 29 -54 29 -33 0 -38 -3
-38 -24 0 -27 32 -71 63 -88 66 -35 177 -26 221 19 21 21 26 35 26 75 0 43 -4
54 -30 78 -17 16 -62 40 -100 55 -60 23 -90 46 -90 69 0 17 37 36 69 36 37 0
71 -23 71 -48 0 -7 16 -12 40 -12 34 0 40 3 40 20 0 36 -28 77 -64 94 -43 20
-131 20 -174 -1z"/>
<path d="M2030 885 l0 -35 65 0 65 0 0 -175 0 -175 40 0 40 0 0 175 0 175 65
0 65 0 0 35 0 35 -170 0 -170 0 0 -35z"/>
<path d="M2640 710 l0 -210 135 0 135 0 0 35 0 35 -95 0 -95 0 0 175 0 175
-40 0 -40 0 0 -210z"/>
<path d="M3266 853 c-63 -167 -126 -339 -126 -345 0 -5 19 -8 43 -8 41 0 43 1
57 43 l15 42 75 0 75 0 15 -42 c14 -42 16 -43 57 -43 24 0 43 4 43 9 0 4 -25
75 -56 157 -31 82 -65 173 -76 202 -19 50 -21 52 -58 52 -38 0 -38 0 -64 -67z
m88 -110 c10 -32 21 -64 23 -70 4 -10 -9 -13 -47 -13 -38 0 -51 3 -47 13 2 6
13 38 23 70 10 31 21 57 24 57 3 0 14 -26 24 -57z"/>
<path d="M3780 710 l0 -210 45 0 44 0 3 130 3 131 79 -131 79 -130 44 0 43 0
0 211 0 210 -42 -3 -43 -3 -5 -129 -5 -130 -80 132 -80 132 -42 0 -43 0 0
-210z"/>
<path d="M4410 710 l0 -210 140 0 140 0 0 35 0 35 -95 0 -95 0 0 55 0 55 80 0
80 0 0 35 0 35 -80 0 -80 0 0 50 0 50 95 0 95 0 0 35 0 35 -140 0 -140 0 0
-210z"/>
<path d="M1605 240 c-11 -12 -18 -35 -18 -60 0 -74 66 -107 115 -58 21 21 22
23 4 26 -10 2 -22 -1 -26 -8 -4 -6 -18 -10 -31 -8 -21 3 -24 8 -24 47 0 53 27
79 50 48 7 -10 21 -17 30 -15 14 3 14 5 0 26 -21 29 -75 30 -100 2z"/>
<path d="M1815 248 c-2 -7 -15 -43 -29 -80 -24 -66 -24 -68 -6 -68 11 0 20 7
20 15 0 21 66 21 74 0 8 -22 39 -19 32 3 -36 114 -76 171 -91 130z m38 -68 c4
-15 0 -20 -14 -20 -20 0 -23 8 -13 34 7 20 20 13 27 -14z"/>
<path d="M1960 180 c0 -73 2 -80 20 -80 16 0 20 7 20 30 0 17 4 30 10 30 5 0
16 -13 25 -30 9 -18 23 -30 36 -30 19 0 19 1 3 32 -13 24 -14 36 -5 50 29 47
6 78 -61 78 l-48 0 0 -80z m80 45 c15 -18 5 -35 -21 -35 -14 0 -19 7 -19 25 0
28 21 33 40 10z"/>
<path d="M2230 180 c0 -73 2 -80 20 -80 16 0 20 7 20 30 0 19 5 30 14 30 7 0
19 -13 26 -30 8 -18 20 -30 31 -30 19 0 19 2 3 31 -11 23 -13 34 -5 42 15 15
14 60 -1 75 -7 7 -34 12 -60 12 l-48 0 0 -80z m74 54 c27 -10 20 -44 -9 -44
-20 0 -25 5 -25 25 0 26 7 29 34 19z"/>
<path d="M2420 180 l0 -80 56 0 c64 0 73 23 11 28 -29 3 -37 7 -37 23 0 14 7
19 30 19 20 0 30 5 30 15 0 10 -10 15 -30 15 -23 0 -30 4 -30 20 0 17 7 20 40
20 22 0 40 5 40 10 0 6 -25 10 -55 10 l-55 0 0 -80z"/>
<path d="M2580 180 c0 -63 3 -80 14 -80 11 0 16 15 18 52 l3 52 32 -52 c48
-77 63 -70 63 28 0 64 -3 80 -15 80 -11 0 -15 -13 -15 -52 l-1 -53 -32 53
c-19 31 -39 52 -49 52 -16 0 -18 -10 -18 -80z"/>
<path d="M2760 250 c0 -5 11 -10 25 -10 24 0 25 -2 25 -70 0 -63 2 -70 20 -70
18 0 20 7 20 70 0 68 1 70 25 70 14 0 25 5 25 10 0 6 -30 10 -70 10 -40 0 -70
-4 -70 -10z"/>
<path d="M2995 251 c-3 -6 -14 -34 -24 -63 -11 -29 -22 -61 -26 -70 -5 -14 -2
-18 14 -18 12 0 21 6 21 15 0 10 11 15 35 15 24 0 35 -5 35 -15 0 -8 9 -15 20
-15 19 0 18 3 -9 78 -27 72 -50 98 -66 73z m35 -78 c0 -7 -7 -13 -15 -13 -16
0 -19 9 -9 35 5 13 8 14 15 3 5 -7 9 -19 9 -25z"/>
<path d="M3140 180 l0 -80 50 0 c38 0 50 4 50 15 0 10 -11 15 -35 15 l-35 0 0
65 c0 51 -3 65 -15 65 -12 0 -15 -16 -15 -80z"/>
<path d="M3312 248 c-27 -27 -4 -67 46 -83 14 -4 22 -13 20 -23 -4 -22 -23
-25 -42 -7 -9 9 -23 15 -31 13 -14 -3 -14 -6 0 -25 28 -40 115 -23 115 21 0
16 -26 38 -62 54 -16 6 -28 16 -28 22 0 20 31 22 51 4 26 -23 49 -5 24 20 -19
19 -76 21 -93 4z"/>
</g>
</svg>
